# Blender v2.79 (sub 0) OBJ File: ''
# www.blender.org
mtllib modelTeste.mtl
o Cube_Untitled
v -0.791624 0.343899 0.783445
v 0.796475 0.332305 0.787468
v -0.791624 0.343899 -0.800632
v 0.796475 0.332305 -0.804654
v 0.827160 0.144771 -0.835379
v -0.827063 0.149980 -0.836029
v 0.827160 0.144771 0.818192
v -0.827063 0.149980 0.818842
v -0.405242 1.546950 0.396945
v 0.406821 1.547472 0.397931
v -0.405242 1.546950 -0.414131
v 0.406821 1.547472 -0.415118
v 0.703587 0.570257 0.694638
v 0.616387 0.757555 0.607471
v 0.535559 0.908108 0.526660
v 0.464536 1.027164 0.455644
v 0.405225 1.119970 0.396335
v 0.358791 1.191772 0.349902
v 0.325625 1.247817 0.316735
v 0.305725 1.293353 0.296835
v 0.299091 1.333626 0.290202
v 0.305725 1.373883 0.296835
v 0.325625 1.419372 0.316735
v 0.358791 1.475338 0.349902
v -0.357656 1.475336 0.349359
v -0.324791 1.419695 0.316494
v -0.305072 1.374422 0.296775
v -0.298499 1.334341 0.290202
v -0.305072 1.294274 0.296775
v -0.324791 1.249048 0.316494
v -0.357656 1.193487 0.349359
v -0.403667 1.122414 0.395370
v -0.462377 1.030655 0.454082
v -0.532668 0.913034 0.524381
v -0.612664 0.764374 0.604394
v -0.699000 0.579502 0.690763
v -0.699000 0.579502 -0.707950
v -0.612664 0.764374 -0.621581
v -0.532668 0.913034 -0.541568
v -0.462377 1.030655 -0.471269
v -0.403667 1.122414 -0.412556
v -0.357656 1.193487 -0.366546
v -0.324791 1.249048 -0.333681
v -0.305072 1.294274 -0.313961
v -0.298499 1.334341 -0.307388
v -0.305072 1.374422 -0.313961
v -0.324791 1.419695 -0.333681
v -0.357656 1.475336 -0.366546
v 0.358791 1.475338 -0.367088
v 0.325625 1.419372 -0.333922
v 0.305725 1.373883 -0.314022
v 0.299091 1.333626 -0.307388
v 0.305725 1.293353 -0.314022
v 0.325625 1.247817 -0.333922
v 0.358791 1.191772 -0.367088
v 0.405225 1.119970 -0.413522
v 0.464536 1.027164 -0.472831
v 0.535559 0.908108 -0.543846
v 0.616387 0.757555 -0.624658
v 0.703587 0.570257 -0.711825
v 0.299091 1.333626 0.290202
v -0.298499 1.334341 0.290202
v -0.298499 1.334341 -0.307388
v 0.299091 1.333626 -0.307388
vn -0.9837 0.1798 -0.0000
vn -0.0006 -0.5538 0.8326
vn -0.0031 -1.0000 0.0000
vn 0.9869 0.1615 0.0000
vn -0.0001 0.1708 -0.9853
vn -0.0001 0.1708 0.9853
vn -0.0006 1.0000 -0.0000
vn -0.0006 -0.5538 -0.8326
vn 0.8324 -0.5542 0.0000
vn -0.8329 -0.5534 0.0000
vn -0.9307 0.3659 0.0000
vn -0.9061 0.4231 -0.0000
vn -0.8806 0.4739 -0.0000
vn -0.8584 0.5130 -0.0000
vn -0.8423 0.5390 0.0000
vn -0.8395 0.5434 0.0000
vn -0.8607 0.5091 -0.0000
vn -0.9167 0.3997 0.0000
vn -0.9868 0.1619 0.0000
vn -0.9868 -0.1618 0.0000
vn -0.9168 -0.3993 0.0000
vn -0.8610 -0.5086 0.0000
vn 0.9315 0.3636 0.0000
vn 0.9066 0.4221 0.0000
vn 0.8811 0.4730 0.0000
vn 0.8588 0.5123 -0.0000
vn 0.8426 0.5385 0.0000
vn 0.8397 0.5430 0.0000
vn 0.8606 0.5093 0.0000
vn 0.9163 0.4004 0.0000
vn 0.9867 0.1625 0.0000
vn 0.9867 -0.1626 0.0000
vn 0.9162 -0.4008 0.0000
vn 0.8603 -0.5098 0.0000
vn 0.0001 0.3648 -0.9311
vn 0.0002 0.4226 -0.9063
vn 0.0004 0.4734 -0.8808
vn 0.0005 0.5126 -0.8586
vn 0.0006 0.5387 -0.8425
vn 0.0007 0.5432 -0.8396
vn 0.0006 0.5092 -0.8606
vn 0.0005 0.4001 -0.9165
vn 0.0002 0.1622 -0.9868
vn -0.0002 -0.1622 -0.9868
vn -0.0005 -0.4001 -0.9165
vn -0.0006 -0.5092 -0.8606
vn 0.0001 0.3648 0.9311
vn 0.0002 0.4226 0.9063
vn 0.0004 0.4734 0.8808
vn 0.0005 0.5126 0.8586
vn 0.0006 0.5387 0.8425
vn 0.0007 0.5432 0.8396
vn 0.0006 0.5092 0.8606
vn 0.0005 0.4001 0.9165
vn 0.0002 0.1622 0.9868
vn -0.0002 -0.1622 0.9868
vn -0.0005 -0.4001 0.9165
vn -0.0006 -0.5092 0.8606
usemtl None
s off
f 6//1 8//1 1//1 3//1
f 25//2 24//2 10//2 9//2
f 8//3 6//3 5//3 7//3
f 7//4 5//4 4//4 2//4
f 5//5 6//5 3//5 4//5
f 8//6 7//6 2//6 1//6
f 9//7 10//7 12//7 11//7
f 49//8 48//8 11//8 12//8
f 24//9 49//9 12//9 10//9
f 48//10 25//10 9//10 11//10
f 3//11 1//11 36//11 37//11
f 37//12 36//12 35//12 38//12
f 38//13 35//13 34//13 39//13
f 39//14 34//14 33//14 40//14
f 40//15 33//15 32//15 41//15
f 41//16 32//16 31//16 42//16
f 42//17 31//17 30//17 43//17
f 43//18 30//18 29//18 44//18
f 44//19 29//19 28//19 45//19
f 45//20 28//20 27//20 46//20
f 46//21 27//21 26//21 47//21
f 47//22 26//22 25//22 48//22
f 2//23 4//23 60//23 13//23
f 13//24 60//24 59//24 14//24
f 14//25 59//25 58//25 15//25
f 15//26 58//26 57//26 16//26
f 16//27 57//27 56//27 17//27
f 17//28 56//28 55//28 18//28
f 18//29 55//29 54//29 19//29
f 19//30 54//30 53//30 20//30
f 20//31 53//31 52//31 21//31
f 21//32 52//32 51//32 22//32
f 22//33 51//33 50//33 23//33
f 23//34 50//34 49//34 24//34
f 4//35 3//35 37//35 60//35
f 60//36 37//36 38//36 59//36
f 59//37 38//37 39//37 58//37
f 58//38 39//38 40//38 57//38
f 57//39 40//39 41//39 56//39
f 56//40 41//40 42//40 55//40
f 55//41 42//41 43//41 54//41
f 54//42 43//42 44//42 53//42
f 53//43 44//43 45//43 52//43
f 52//44 45//44 46//44 51//44
f 51//45 46//45 47//45 50//45
f 50//46 47//46 48//46 49//46
f 1//47 2//47 13//47 36//47
f 36//48 13//48 14//48 35//48
f 35//49 14//49 15//49 34//49
f 34//50 15//50 16//50 33//50
f 33//51 16//51 17//51 32//51
f 32//52 17//52 18//52 31//52
f 31//53 18//53 19//53 30//53
f 30//54 19//54 20//54 29//54
f 29//55 20//55 21//55 28//55
f 28//56 21//56 22//56 27//56
f 27//57 22//57 23//57 26//57
f 26//58 23//58 24//58 25//58
l 62 63
l 64 61
l 63 64
l 61 62
